<svg width="34" height="35" viewBox="0 0 34 35" fill="none" xmlns="http://www.w3.org/2000/svg">
<path d="M19.8333 13.9797V18.088H23.5167C23.8 18.088 23.9417 18.3714 23.9417 18.6547L23.375 21.3464C23.375 21.488 23.0917 21.6297 22.95 21.6297H19.8333V31.9714H15.5833V21.7714H13.175C12.8917 21.7714 12.75 21.6297 12.75 21.3464V18.6547C12.75 18.3714 12.8917 18.2297 13.175 18.2297H15.5833V13.5547C15.5833 11.1464 17.425 9.30469 19.8333 9.30469H23.6583C23.9417 9.30469 24.0833 9.44635 24.0833 9.72969V13.1297C24.0833 13.413 23.9417 13.5547 23.6583 13.5547H20.2583C19.975 13.5547 19.8333 13.6964 19.8333 13.9797Z" stroke="white" stroke-width="1.5" stroke-miterlimit="10" stroke-linecap="round"/>
<path d="M21.2507 31.9715H12.7507C5.66732 31.9715 2.83398 29.1382 2.83398 22.0549V13.5549C2.83398 6.47152 5.66732 3.63818 12.7507 3.63818H21.2507C28.334 3.63818 31.1673 6.47152 31.1673 13.5549V22.0549C31.1673 29.1382 28.334 31.9715 21.2507 31.9715Z" stroke="white" stroke-width="1.5" stroke-linecap="round" stroke-linejoin="round"/>
</svg>
