<svg id="customer_1_" data-name="customer (1)" xmlns="http://www.w3.org/2000/svg" width="61.958" height="61.958" viewBox="0 0 61.958 61.958">
  <path id="Path_17" data-name="Path 17" d="M16.068,21.136V19a1.068,1.068,0,1,0,0,2.136Z" transform="translate(-2.181 -1.908)" fill="#fff"/>
  <path id="Path_18" data-name="Path 18" d="M24.409,21.2V19.067h-.816a11.255,11.255,0,0,1-4.729-1.049A1.071,1.071,0,0,0,18,19.067V21.2a3.2,3.2,0,1,0,6.409,0Z" transform="translate(-1.976 -1.975)" fill="#fff"/>
  <path id="Path_19" data-name="Path 19" d="M26,19v2.136A1.068,1.068,0,1,0,26,19Z" transform="translate(-1.43 -1.908)" fill="#fff"/>
  <path id="Path_20" data-name="Path 20" d="M16.9,17.409a3.187,3.187,0,0,1,2.371-1.068h.252l.225.112a9.1,9.1,0,0,0,4.048.956h2.953a3.159,3.159,0,0,1,.809.116A4.945,4.945,0,0,0,22.844,11h-2.87a4.945,4.945,0,0,0-4.714,6.526,3.159,3.159,0,0,1,.809-.116Z" transform="translate(-2.181 -2.454)" fill="#fff"/>
  <path id="Path_21" data-name="Path 21" d="M22.228,41.457a19.439,19.439,0,0,0,2.615-.2A20.824,20.824,0,0,1,25.468,39,17.148,17.148,0,1,1,39,25.467a21.341,21.341,0,0,1,2.261-.625A19.22,19.22,0,1,0,22.228,41.457Z" transform="translate(-3 -3)" fill="#fff"/>
  <path id="Path_22" data-name="Path 22" d="M19.473,25.732q-.09.157-.192.3L21.117,28.5l1.838-2.468c-.068-.1-.132-.2-.193-.3a4.867,4.867,0,0,1-3.289,0Z" transform="translate(-1.889 -1.449)" fill="#fff"/>
  <path id="Path_23" data-name="Path 23" d="M13.567,28.4a3.174,3.174,0,0,0-2.519,2.671,14.9,14.9,0,0,0,14.86,3.838,21.428,21.428,0,0,1,4.553-6.286,3.162,3.162,0,0,0-.67-.223l-3.863-.78a4.636,4.636,0,0,1-.779-.309l-3.471,4.659-3.463-4.649a4.2,4.2,0,0,1-.7.279Z" transform="translate(-2.451 -1.341)" fill="#fff"/>
  <path id="Path_24" data-name="Path 24" d="M44.228,25A19.228,19.228,0,1,0,63.457,44.228,19.25,19.25,0,0,0,44.228,25ZM56.993,38.418a3.361,3.361,0,0,1-.967,1.749L41.153,55.04a3.2,3.2,0,0,1-4.531,0l-6.327-6.327a3.361,3.361,0,0,1-.967-1.749,3.21,3.21,0,0,1,3.75-3.75,3.361,3.361,0,0,1,1.749.967l4.061,4.06L51.495,35.635a3.361,3.361,0,0,1,1.749-.967,3.21,3.21,0,0,1,3.75,3.75Z" transform="translate(-1.499 -1.499)" fill="#fff"/>
  <path id="Path_25" data-name="Path 25" d="M36.293,26.187a14.956,14.956,0,1,0-26.57,4.346,5.291,5.291,0,0,1,3.7-2.839l3.863-.78a2.058,2.058,0,0,0,1.17-.958,5.334,5.334,0,0,1-1.386-1.863h-.453a3.2,3.2,0,0,1-2.62-5.04,7.1,7.1,0,0,1,6.527-9.915h2.87a7.1,7.1,0,0,1,6.526,9.916,3.2,3.2,0,0,1-2.62,5.039h-.453a5.35,5.35,0,0,1-1.384,1.862,2.126,2.126,0,0,0,1.25.98l3.782.761a5.311,5.311,0,0,1,1.968.846,21.39,21.39,0,0,1,3.835-2.353Z" transform="translate(-2.727 -2.727)" fill="#fff"/>
  <path id="Path_26" data-name="Path 26" d="M57.592,27.392l2.1-.389c-.141-.757-.313-1.519-.512-2.263l-2.064.553C57.3,25.983,57.462,26.689,57.592,27.392Z" transform="translate(0.693 -1.516)" fill="#fff"/>
  <path id="Path_27" data-name="Path 27" d="M42.2,10.409a3.186,3.186,0,0,0,2.339-1.03A28.029,28.029,0,0,1,57.717,24.652l2.015-.711A30.18,30.18,0,0,0,45.389,7.412c0-.069.02-.137.02-.207a3.2,3.2,0,1,0-3.2,3.2Z" transform="translate(-0.543 -2.932)" fill="#fff"/>
  <path id="Path_28" data-name="Path 28" d="M6.572,36.777l-2.1.389c.141.757.313,1.519.512,2.263l2.064-.553C6.862,38.186,6.7,37.48,6.572,36.777Z" transform="translate(-2.9 -0.695)" fill="#fff"/>
  <path id="Path_29" data-name="Path 29" d="M23.12,54.91a3.186,3.186,0,0,0-2.339,1.03A28.037,28.037,0,0,1,7.608,40.667l-2.015.711A30.18,30.18,0,0,0,19.935,57.907c0,.069-.02.137-.02.207a3.2,3.2,0,1,0,3.2-3.2Z" transform="translate(-2.823 -0.43)" fill="#fff"/>
</svg>
