<svg id="phone" xmlns="http://www.w3.org/2000/svg" width="66.493" height="58.441" viewBox="0 0 66.493 58.441">
  <path id="Path_39" data-name="Path 39" d="M210.22,31H194.636a13.637,13.637,0,0,0-1.948,27.134v5.983a1.948,1.948,0,0,0,3.325,1.377l7.221-7.221h6.985a13.637,13.637,0,1,0,0-27.272ZM194.636,46.584a1.948,1.948,0,1,1,1.948-1.948A1.948,1.948,0,0,1,194.636,46.584Zm7.792,0a1.948,1.948,0,1,1,1.948-1.948A1.948,1.948,0,0,1,202.428,46.584Zm7.792,0a1.948,1.948,0,1,1,1.948-1.948A1.948,1.948,0,0,1,210.22,46.584Z" transform="translate(-157.494 -31)" fill="#fff"/>
  <path id="Path_40" data-name="Path 40" d="M43.766,149.48a5.851,5.851,0,0,0,5.844-5.844v-7.792A1.946,1.946,0,0,0,48.278,134l-11.661-3.9a1.95,1.95,0,0,0-1.7.226l-4.958,3.3a34.288,34.288,0,0,1-13.984-13.984l3.3-4.958a1.95,1.95,0,0,0,.226-1.7l-3.9-11.661A1.946,1.946,0,0,0,13.766,100H5.844A5.827,5.827,0,0,0,0,105.817C0,128.261,21.322,149.48,43.766,149.48Z" transform="translate(0 -91.039)" fill="#fff"/>
</svg>
