<svg id="connection" xmlns="http://www.w3.org/2000/svg" width="69.748" height="58.441" viewBox="0 0 69.748 58.441">
  <g id="Group_14" data-name="Group 14">
    <path id="Path_36" data-name="Path 36" d="M24.829,207.9l.354-.019c22.064-8.906,30.292-29.646,20.576-38.552s-20.849,2.813-20.849,2.813h-.081S13.7,160.419,3.98,169.325,2.765,198.991,24.829,207.9Z" transform="translate(0 -149.457)" fill="#fff"/>
    <path id="Path_37" data-name="Path 37" d="M272.847,108.05a1.917,1.917,0,1,0,0,3.834c9.424,0,17.091,7.238,17.091,16.133a1.917,1.917,0,1,0,3.833,0C293.771,117.006,284.384,108.05,272.847,108.05Z" transform="translate(-234.725 -99.265)" fill="#fff"/>
    <path id="Path_38" data-name="Path 38" d="M299.605,69.781a1.917,1.917,0,1,0,3.834,0c0-15.149-14.259-27.474-31.786-27.474a1.917,1.917,0,1,0,0,3.834C287.066,46.141,299.605,56.745,299.605,69.781Z" transform="translate(-233.691 -42.307)" fill="#fff"/>
  </g>
</svg>
