<svg id="search_2_" data-name="search (2)" xmlns="http://www.w3.org/2000/svg" width="58.441" height="58.441" viewBox="0 0 58.441 58.441">
  <path id="Path_30" data-name="Path 30" d="M392.493,8.912a6.055,6.055,0,1,0-2.581,2.581l2.581,2.581a1.826,1.826,0,1,0,2.581-2.584Zm-7.841-2.825a2.435,2.435,0,1,1,2.435,2.435A2.442,2.442,0,0,1,384.653,6.088Z" transform="translate(-337.169)" fill="#fff"/>
  <path id="Path_31" data-name="Path 31" d="M4.261,14.61H34.7a4.266,4.266,0,0,0,4.261-4.261V4.261A4.266,4.266,0,0,0,34.7,0H4.261A4.266,4.266,0,0,0,0,4.261v6.088A4.266,4.266,0,0,0,4.261,14.61Z" transform="translate(0)" fill="#fff"/>
  <path id="Path_32" data-name="Path 32" d="M34.7,169.333H4.261A4.282,4.282,0,0,0,0,173.594v30.438a4.282,4.282,0,0,0,4.261,4.261H34.7a4.282,4.282,0,0,0,4.261-4.261V173.594A4.282,4.282,0,0,0,34.7,169.333Zm-15.219,9.74a3.653,3.653,0,1,1-3.653,3.653A3.648,3.648,0,0,1,19.48,179.073Zm7.305,15.219a1.84,1.84,0,0,1-1.826,1.826H14a1.84,1.84,0,0,1-1.826-1.826v-.9a4.865,4.865,0,0,1,5.114-4.578h4.383a4.865,4.865,0,0,1,5.114,4.578Z" transform="translate(0 -149.853)" fill="#fff"/>
  <circle id="Ellipse_12" data-name="Ellipse 12" cx="7.305" cy="7.305" r="7.305" transform="translate(43.831 42.613)" fill="#fff"/>
  <path id="Path_33" data-name="Path 33" d="M393.784,232.833H382.826a1.826,1.826,0,1,0,0,3.653h10.958a1.826,1.826,0,1,0,0-3.653Z" transform="translate(-337.169 -206.048)" fill="#fff"/>
  <path id="Path_34" data-name="Path 34" d="M393.784,169.333H382.826a1.826,1.826,0,1,0,0,3.653h10.958a1.826,1.826,0,1,0,0-3.653Z" transform="translate(-337.169 -149.853)" fill="#fff"/>
  <path id="Path_35" data-name="Path 35" d="M393.784,296.333H382.826a1.826,1.826,0,1,0,0,3.653h10.958a1.826,1.826,0,1,0,0-3.653Z" transform="translate(-337.169 -262.242)" fill="#fff"/>
</svg>
