<svg width="36" height="36" viewBox="0 0 36 36" fill="none" xmlns="http://www.w3.org/2000/svg">
<path d="M24.9215 31.4747C24.9215 27.7762 21.239 24.7604 16.6834 24.7604C12.1279 24.7604 8.44531 27.7604 8.44531 31.4747M16.6802 21.2064C17.8632 21.2064 18.9977 20.7365 19.8342 19.9C20.6706 19.0635 21.1406 17.929 21.1406 16.7461C21.1406 15.5631 20.6706 14.4286 19.8342 13.5922C18.9977 12.7557 17.8632 12.2858 16.6802 12.2858C15.4973 12.2858 14.3628 12.7557 13.5263 13.5922C12.6898 14.4286 12.2199 15.5631 12.2199 16.7461C12.2199 17.929 12.6898 19.0635 13.5263 19.9C14.3628 20.7365 15.4973 21.2064 16.6802 21.2064Z" stroke="url(#paint0_linear_40_289)" stroke-width="2" stroke-linecap="round" stroke-linejoin="round"/>
<path d="M16.7464 4.17468C18.8257 4.17468 20.8098 4.58738 22.6194 5.34929C22.413 5.98421 22.3019 6.65087 22.3019 7.34929C22.3019 8.53976 22.6352 9.66675 23.2225 10.6191C23.54 11.1588 23.9527 11.6509 24.4289 12.0636C25.54 13.0794 27.0162 13.6985 28.6511 13.6985C29.3495 13.6985 30.0162 13.5874 30.6352 13.3652C31.3972 15.1747 31.8257 17.1747 31.8257 19.254C31.8257 27.5874 25.0797 34.3334 16.7464 34.3334C8.41302 34.3334 1.66699 27.5874 1.66699 19.254C1.66699 13.1588 5.28604 7.90484 10.4924 5.52389" stroke="url(#paint1_linear_40_289)" stroke-width="2" stroke-linecap="round" stroke-linejoin="round"/>
<path d="M31.0192 7.31747H26.2891M28.651 5.00001V9.74604M35.0002 7.34922C35.0002 7.85715 34.9367 8.34922 34.8097 8.82541C34.6668 9.46033 34.4129 10.0794 34.0795 10.6191C33.3176 11.9048 32.0954 12.9048 30.6351 13.3651C30.0161 13.5873 29.3494 13.6984 28.651 13.6984C27.0882 13.703 25.5809 13.1194 24.4288 12.0635C23.9526 11.6508 23.5399 11.1587 23.2224 10.6191C22.6182 9.6356 22.2994 8.50346 22.3018 7.34922C22.3018 6.6508 22.4129 5.98414 22.6192 5.34922C23.0387 4.08155 23.8476 2.97863 24.9307 2.19768C26.0138 1.41673 27.3157 0.99759 28.651 1.00001C30.524 1.00001 32.2224 1.80953 33.3653 3.11112C34.3811 4.23811 35.0002 5.73017 35.0002 7.34922Z" stroke="url(#paint2_linear_40_289)" stroke-width="2" stroke-miterlimit="10" stroke-linecap="round" stroke-linejoin="round"/>
<defs>
<linearGradient id="paint0_linear_40_289" x1="16.6834" y1="12.2858" x2="16.6834" y2="31.4747" gradientUnits="userSpaceOnUse">
<stop stop-color="#66011B"/>
<stop offset="1" stop-color="#66011B" stop-opacity="0.53"/>
</linearGradient>
<linearGradient id="paint1_linear_40_289" x1="16.7464" y1="4.17468" x2="16.7464" y2="34.3334" gradientUnits="userSpaceOnUse">
<stop stop-color="#66011B"/>
<stop offset="1" stop-color="#66011B" stop-opacity="0.53"/>
</linearGradient>
<linearGradient id="paint2_linear_40_289" x1="28.651" y1="1" x2="28.651" y2="13.6985" gradientUnits="userSpaceOnUse">
<stop stop-color="#66011B"/>
<stop offset="1" stop-color="#66011B" stop-opacity="0.53"/>
</linearGradient>
</defs>
</svg>
