<svg width="34" height="34" viewBox="0 0 34 34" fill="none" xmlns="http://www.w3.org/2000/svg">
<path d="M28.1998 23.4V8.2C28.1998 6.44 26.7598 5 24.9998 5H17.7998" stroke="url(#paint0_linear_40_310)" stroke-width="2" stroke-linecap="round" stroke-linejoin="round"/>
<path d="M21.8 1L17 5L21.8 9M5.8 12.2V23.4M5.8 23.4C7.07304 23.4 8.29394 23.9057 9.19411 24.8059C10.0943 25.7061 10.6 26.927 10.6 28.2C10.6 29.473 10.0943 30.6939 9.19411 31.5941C8.29394 32.4943 7.07304 33 5.8 33C4.52696 33 3.30606 32.4943 2.40589 31.5941C1.50571 30.6939 1 29.473 1 28.2C1 26.927 1.50571 25.7061 2.40589 24.8059C3.30606 23.9057 4.52696 23.4 5.8 23.4ZM6.2 1C3.336 1 1 3.336 1 6.2C1 9.064 3.336 11.4 6.2 11.4C9.064 11.4 11.4 9.064 11.4 6.2M28.2 33C29.473 33 30.6939 32.4943 31.5941 31.5941C32.4943 30.6939 33 29.473 33 28.2C33 26.927 32.4943 25.7061 31.5941 24.8059C30.6939 23.9057 29.473 23.4 28.2 23.4C26.927 23.4 25.7061 23.9057 24.8059 24.8059C23.9057 25.7061 23.4 26.927 23.4 28.2C23.4 29.473 23.9057 30.6939 24.8059 31.5941C25.7061 32.4943 26.927 33 28.2 33Z" stroke="url(#paint1_linear_40_310)" stroke-width="2" stroke-linecap="round" stroke-linejoin="round"/>
<defs>
<linearGradient id="paint0_linear_40_310" x1="22.9998" y1="5" x2="22.9998" y2="23.4" gradientUnits="userSpaceOnUse">
<stop stop-color="#66011B"/>
<stop offset="1" stop-color="#66011B" stop-opacity="0.53"/>
</linearGradient>
<linearGradient id="paint1_linear_40_310" x1="17" y1="1" x2="17" y2="33" gradientUnits="userSpaceOnUse">
<stop stop-color="#66011B"/>
<stop offset="1" stop-color="#66011B" stop-opacity="0.53"/>
</linearGradient>
</defs>
</svg>
