<svg width="34" height="35" viewBox="0 0 34 35" fill="none" xmlns="http://www.w3.org/2000/svg">
<path d="M12.7507 31.9715H21.2507C28.334 31.9715 31.1673 29.1382 31.1673 22.0549V13.5549C31.1673 6.47152 28.334 3.63818 21.2507 3.63818H12.7507C5.66732 3.63818 2.83398 6.47152 2.83398 13.5549V22.0549C2.83398 29.1382 5.66732 31.9715 12.7507 31.9715Z" stroke="white" stroke-width="1.5" stroke-linecap="round" stroke-linejoin="round"/>
<path d="M16.9993 22.7629C17.6505 22.7629 18.2952 22.6346 18.8968 22.3854C19.4984 22.1362 20.045 21.771 20.5054 21.3106C20.9658 20.8502 21.3311 20.3036 21.5803 19.702C21.8294 19.1004 21.9577 18.4557 21.9577 17.8045C21.9577 17.1534 21.8294 16.5086 21.5803 15.9071C21.3311 15.3055 20.9658 14.7589 20.5054 14.2985C20.045 13.838 19.4984 13.4728 18.8968 13.2236C18.2952 12.9744 17.6505 12.8462 16.9993 12.8462C15.6843 12.8462 14.4231 13.3686 13.4933 14.2985C12.5634 15.2283 12.041 16.4895 12.041 17.8045C12.041 19.1196 12.5634 20.3807 13.4933 21.3106C14.4231 22.2405 15.6843 22.7629 16.9993 22.7629Z" stroke="white" stroke-width="1.5" stroke-linecap="round" stroke-linejoin="round"/>
<path d="M24.9843 10.7213H25.0013" stroke="white" stroke-width="2" stroke-linecap="round" stroke-linejoin="round"/>
</svg>
