<svg width="22" height="25" viewBox="0 0 22 25" fill="none" xmlns="http://www.w3.org/2000/svg">
<path d="M21 24C21 19.5495 16.518 15.95 11 15.95C5.48196 15.95 1 19.5495 1 24M11 12.5C12.5438 12.5 14.0243 11.8942 15.1159 10.8159C16.2075 9.73753 16.8207 8.27499 16.8207 6.75C16.8207 5.22501 16.2075 3.76247 15.1159 2.68414C14.0243 1.6058 12.5438 1 11 1C9.45625 1 7.97573 1.6058 6.88413 2.68414C5.79253 3.76247 5.17928 5.22501 5.17928 6.75C5.17928 8.27499 5.79253 9.73753 6.88413 10.8159C7.97573 11.8942 9.45625 12.5 11 12.5Z" stroke="white" stroke-width="2" stroke-linecap="round" stroke-linejoin="round"/>
</svg>
