<svg width="22" height="22" viewBox="0 0 22 22" fill="none" xmlns="http://www.w3.org/2000/svg">
<path d="M20.9999 3.99999C20.9999 4.95788 20.5473 5.81051 19.8526 6.35788C19.3473 6.75788 18.7052 6.99998 17.9999 6.99998C16.3368 6.99998 15 5.66314 15 3.99999C15 3.29473 15.2421 2.66315 15.6421 2.14737H15.6526C16.1894 1.45263 17.0421 1 17.9999 1C19.6631 1 20.9999 2.33684 20.9999 3.99999ZM6.99998 3.99999C6.99998 5.66314 5.66314 6.99998 3.99999 6.99998C3.40665 6.99998 2.82663 6.82404 2.33329 6.49439C1.83994 6.16475 1.45542 5.69621 1.22836 5.14804C1.0013 4.59986 0.94189 3.99666 1.05765 3.41472C1.1734 2.83278 1.45912 2.29823 1.87868 1.87868C2.29823 1.45912 2.83278 1.1734 3.41472 1.05765C3.99666 0.94189 4.59986 1.0013 5.14804 1.22836C5.69621 1.45542 6.16475 1.83994 6.49439 2.33329C6.82404 2.82663 6.99998 3.40665 6.99998 3.99999ZM20.9999 17.9999C20.9999 19.6631 19.6631 20.9999 17.9999 20.9999C17.0421 20.9999 16.1894 20.5473 15.6526 19.8526H15.6421C15.2421 19.3473 15 18.7052 15 17.9999C15 16.3368 16.3368 15 17.9999 15C18.7052 15 19.3368 15.2421 19.8526 15.6421V15.6526C20.5473 16.1894 20.9999 17.0421 20.9999 17.9999ZM6.99998 17.9999C6.99998 18.7052 6.75788 19.3368 6.35788 19.8526C6.07897 20.2116 5.72131 20.5018 5.3125 20.7007C4.90368 20.8997 4.45463 21.002 3.99999 20.9999C2.33684 20.9999 1 19.6631 1 17.9999C1 17.0421 1.45263 16.1894 2.14737 15.6526V15.6421C2.65263 15.2421 3.29473 15 3.99999 15C5.66314 15 6.99998 16.3368 6.99998 17.9999Z" stroke="white" stroke-width="2" stroke-linecap="round" stroke-linejoin="round"/>
<path d="M21 11C21 12.6842 20.5895 14.2526 19.8526 15.6421C19.3474 15.2421 18.7052 15 18 15C16.3368 15 15 16.3368 15 17.9999C15 18.7052 15.2421 19.3368 15.6421 19.8526C14.2126 20.6108 12.6182 21.0049 11 20.9999C9.32633 20.9999 7.74739 20.5894 6.35792 19.8526C6.75792 19.3473 7.00003 18.7052 7.00003 17.9999C7.00003 16.3368 5.66319 15 4.00004 15C3.29478 15 2.6632 15.2421 2.14741 15.6421C1.38916 14.2125 0.995076 12.6181 1.00005 11C1.00005 9.32629 1.41057 7.74735 2.14741 6.35788C2.6632 6.75788 3.29478 6.99998 4.00004 6.99998C5.66319 6.99998 7.00003 5.66314 7.00003 3.99999C7.00003 3.29473 6.75792 2.66315 6.35792 2.14736C7.74739 1.41052 9.32633 1 11 1C12.6842 1 14.2526 1.41052 15.6421 2.14736C15.2421 2.65263 15 3.29473 15 3.99999C15 5.66314 16.3368 6.99998 18 6.99998C18.7052 6.99998 19.3368 6.75788 19.8526 6.35788C20.5895 7.74735 21 9.32629 21 11Z" stroke="white" stroke-width="2" stroke-linecap="round" stroke-linejoin="round"/>
</svg>
