<svg width="28" height="28" viewBox="0 0 28 28" fill="none" xmlns="http://www.w3.org/2000/svg">
<path d="M18.4401 24.3334C18.4401 21.5596 15.6782 19.2977 12.2616 19.2977C8.84491 19.2977 6.08301 21.5477 6.08301 24.3334M12.2616 16.631C13.1488 16.631 13.9997 16.2786 14.627 15.6512C15.2544 15.0239 15.6068 14.173 15.6068 13.2858C15.6068 12.3986 15.2544 11.5477 14.627 10.9203C13.9997 10.293 13.1488 9.94055 12.2616 9.94055C11.3744 9.94055 10.5235 10.293 9.89614 10.9203C9.26879 11.5477 8.91634 12.3986 8.91634 13.2858C8.91634 14.173 9.26879 15.0239 9.89614 15.6512C10.5235 16.2786 11.3744 16.631 12.2616 16.631Z" stroke="white" stroke-width="1.5" stroke-linecap="round" stroke-linejoin="round"/>
<path d="M23.619 15.1667C23.619 21.4167 18.5595 26.4762 12.3095 26.4762C6.05952 26.4762 1 21.4167 1 15.1667C1 8.9167 6.05952 3.85718 12.3095 3.85718C13.869 3.85718 15.3571 4.1667 16.7143 4.73813C16.5595 5.21432 16.4762 5.71432 16.4762 6.23813C16.4762 7.13099 16.7262 7.97623 17.1667 8.69051C17.4048 9.09527 17.7143 9.46432 18.0714 9.77384C18.9048 10.5357 20.0119 11 21.2381 11C21.7619 11 22.2619 10.9167 22.7262 10.75C23.2976 12.1072 23.619 13.6072 23.619 15.1667Z" stroke="white" stroke-width="2" stroke-linecap="round" stroke-linejoin="round"/>
<path d="M21.7619 3.85715V6.2381M21.7619 10.5238C24.381 10.5238 26.5238 8.38096 26.5238 5.76191C26.5238 3.14286 24.381 1.00001 21.7619 1.00001C19.1429 1.00001 17 3.14286 17 5.76191C17 8.38096 19.1429 10.5238 21.7619 10.5238Z" stroke="white" stroke-width="1.5" stroke-linecap="round" stroke-linejoin="round"/>
<path d="M21.7617 8.61902H21.7666" stroke="white" stroke-width="1.5" stroke-linecap="round" stroke-linejoin="round"/>
</svg>
