<svg width="38" height="20" viewBox="0 0 38 20" fill="none" xmlns="http://www.w3.org/2000/svg">
<path d="M26.5092 18.4842C26.5092 15.101 23.1435 12.3647 18.9997 12.3647C14.8559 12.3647 11.4902 15.101 11.4902 18.4842M18.9997 9.74211C20.159 9.74211 21.2708 9.28159 22.0905 8.46186C22.9102 7.64212 23.3708 6.53033 23.3708 5.37105C23.3708 4.21178 22.9102 3.09998 22.0905 2.28025C21.2708 1.46052 20.159 1 18.9997 1C17.8404 1 16.7286 1.46052 15.9089 2.28025C15.0892 3.09998 14.6287 4.21178 14.6287 5.37105C14.6287 6.53033 15.0892 7.64212 15.9089 8.46186C16.7286 9.28159 17.8404 9.74211 18.9997 9.74211Z" stroke="white" stroke-width="1.5" stroke-linecap="round" stroke-linejoin="round"/>
<path d="M37.0004 18.4842C37.0004 15.101 33.6347 12.3647 29.4909 12.3647C25.3472 12.3647 21.9814 15.101 21.9814 18.4842M29.4909 9.74211C30.6502 9.74211 31.762 9.28159 32.5817 8.46186C33.4014 7.64212 33.862 6.53033 33.862 5.37105C33.862 4.21178 33.4014 3.09998 32.5817 2.28025C31.762 1.46052 30.6502 1 29.4909 1C28.3316 1 27.2198 1.46052 26.4001 2.28025C25.5804 3.09998 25.1199 4.21178 25.1199 5.37105C25.1199 6.53033 25.5804 7.64212 26.4001 8.46186C27.2198 9.28159 28.3316 9.74211 29.4909 9.74211Z" stroke="white" stroke-width="1.5" stroke-linecap="round" stroke-linejoin="round"/>
<path d="M16.0189 18.4842C16.0189 15.101 12.6532 12.3647 8.50947 12.3647C4.36571 12.3647 1 15.101 1 18.4842M8.50947 9.74211C9.66875 9.74211 10.7805 9.28159 11.6003 8.46186C12.42 7.64212 12.8805 6.53033 12.8805 5.37105C12.8805 4.21178 12.42 3.09998 11.6003 2.28025C10.7805 1.46052 9.66875 1 8.50947 1C7.3502 1 6.2384 1.46052 5.41867 2.28025C4.59894 3.09998 4.13842 4.21178 4.13842 5.37105C4.13842 6.53033 4.59894 7.64212 5.41867 8.46186C6.2384 9.28159 7.3502 9.74211 8.50947 9.74211Z" stroke="white" stroke-width="1.5" stroke-linecap="round" stroke-linejoin="round"/>
</svg>
