<svg width="26" height="27" viewBox="0 0 26 27" fill="none" xmlns="http://www.w3.org/2000/svg">
<path d="M1 26C1 21.1625 5.8125 17.25 11.7375 17.25C12.9375 17.25 14.1 17.4125 15.1875 17.7125M11.7375 13.5C13.3951 13.5 14.9848 12.8415 16.1569 11.6694C17.329 10.4973 17.9875 8.9076 17.9875 7.25C17.9875 5.5924 17.329 4.00268 16.1569 2.83058C14.9848 1.65848 13.3951 1 11.7375 1C10.0799 1 8.49018 1.65848 7.31808 2.83058C6.14598 4.00268 5.4875 5.5924 5.4875 7.25C5.4875 8.9076 6.14598 10.4973 7.31808 11.6694C8.49018 12.8415 10.0799 13.5 11.7375 13.5Z" stroke="white" stroke-width="2" stroke-linecap="round" stroke-linejoin="round"/>
<path d="M21.0998 20.975H17.3748M19.2373 19.15V22.8875M24.2373 21C24.2373 21.4 24.1873 21.7875 24.0873 22.1625C23.9748 22.6625 23.7748 23.15 23.5123 23.575C23.0716 24.3156 22.4457 24.9287 21.6961 25.3539C20.9465 25.7791 20.0991 26.0018 19.2373 26C18.0066 26.0036 16.8196 25.544 15.9123 24.7125C15.5373 24.3875 15.2123 24 14.9623 23.575C14.4865 22.8005 14.2355 21.909 14.2373 21C14.2365 20.3432 14.3653 19.6926 14.6162 19.0856C14.8672 18.4786 15.2355 17.9271 15.6999 17.4626C16.1644 16.9982 16.7159 16.6299 17.3229 16.3789C17.9299 16.1279 18.5805 15.9992 19.2373 16C20.7123 16 22.0498 16.6375 22.9498 17.6625C23.7498 18.55 24.2373 19.725 24.2373 21Z" stroke="white" stroke-width="2" stroke-miterlimit="10" stroke-linecap="round" stroke-linejoin="round"/>
</svg>
