<svg width="25" height="26" viewBox="0 0 25 26" fill="none" xmlns="http://www.w3.org/2000/svg">
<path d="M17.9049 3.40469C20.2366 3.40469 22.1116 5.29169 22.1116 7.61138C22.1116 9.88299 20.3087 11.7339 18.0611 11.8181C17.9573 11.806 17.8524 11.806 17.7486 11.8181M20.2246 22.6353C21.0899 22.455 21.9072 22.1064 22.5803 21.5896C24.4553 20.1834 24.4553 17.8637 22.5803 16.4574C21.9193 15.9526 21.114 15.6161 20.2606 15.4238M9.19102 11.6618C9.07083 11.6498 8.9266 11.6498 8.79439 11.6618C7.41484 11.615 6.10769 11.033 5.14975 10.0392C4.19181 9.04536 3.65831 7.71769 3.66223 6.33735C3.66223 3.39267 6.04202 1.00087 8.99872 1.00087C10.4124 0.975367 11.7784 1.51251 12.7961 2.49414C13.8138 3.47576 14.3998 4.82146 14.4253 6.23519C14.4508 7.64892 13.9137 9.01488 12.9321 10.0326C11.9504 11.0503 10.6048 11.6363 9.19102 11.6618ZM3.18147 16.0969C0.272844 18.044 0.272844 21.217 3.18147 23.1521C6.48672 25.3636 11.9073 25.3636 15.2126 23.1521C18.1212 21.205 18.1212 18.0319 15.2126 16.0969C11.9194 13.8974 6.49874 13.8974 3.18147 16.0969Z" stroke="white" stroke-width="2" stroke-linecap="round" stroke-linejoin="round"/>
</svg>
