<svg width="24" height="24" viewBox="0 0 24 24" fill="none" xmlns="http://www.w3.org/2000/svg">
<path opacity="0.4" d="M11.5 21C12.7476 21 13.9829 20.7543 15.1355 20.2769C16.2881 19.7994 17.3354 19.0997 18.2175 18.2175C19.0997 17.3354 19.7994 16.2881 20.2769 15.1355C20.7543 13.9829 21 12.7476 21 11.5C21 10.2524 20.7543 9.0171 20.2769 7.86451C19.7994 6.71191 19.0997 5.66464 18.2175 4.78249C17.3354 3.90033 16.2881 3.20056 15.1355 2.72314C13.9829 2.24572 12.7476 2 11.5 2C8.98044 2 6.56408 3.00089 4.78249 4.78249C3.00089 6.56408 2 8.98044 2 11.5C2 14.0196 3.00089 16.4359 4.78249 18.2175C6.56408 19.9991 8.98044 21 11.5 21Z" fill="#87032F"/>
<path d="M21.3 21.999C21.12 21.999 20.94 21.929 20.81 21.799L18.95 19.939C18.8201 19.8069 18.7474 19.6292 18.7474 19.444C18.7474 19.2588 18.8201 19.081 18.95 18.949C19.22 18.679 19.66 18.679 19.94 18.949L21.8 20.809C22.07 21.079 22.07 21.519 21.8 21.799C21.66 21.929 21.48 21.999 21.3 21.999ZM13.27 8.88897C12.64 8.68897 11.97 8.80897 11.49 9.17897C11 8.80897 10.35 8.68897 9.71999 8.88897C8.35999 9.32897 7.92999 10.879 8.30999 12.059C8.88999 13.869 10.8 14.809 11.49 14.809C12.16 14.809 14.11 13.849 14.67 12.059C15.06 10.879 14.63 9.32897 13.27 8.88897Z" fill="#87032F"/>
</svg>
