<svg id="telephone-inbound" xmlns="http://www.w3.org/2000/svg" width="20.808" height="20.808" viewBox="0 0 20.808 20.808">
  <path id="Path_75" data-name="Path 75" d="M5.722,2.341a.854.854,0,0,0-1.277-.079l-1.3,1.3a2.151,2.151,0,0,0-.565,2.225,22.108,22.108,0,0,0,5.245,8.318,22.108,22.108,0,0,0,8.317,5.245,2.153,2.153,0,0,0,2.225-.565l1.3-1.3a.854.854,0,0,0-.081-1.277l-2.9-2.257a.854.854,0,0,0-.73-.155l-2.754.688a2.2,2.2,0,0,1-2.086-.577l-3.09-3.092a2.2,2.2,0,0,1-.577-2.086l.688-2.754a.854.854,0,0,0-.155-.73ZM3.5,1.314a2.2,2.2,0,0,1,3.286.205l2.256,2.9a2.19,2.19,0,0,1,.4,1.879L8.748,9.056a.854.854,0,0,0,.224.811l3.093,3.09a.854.854,0,0,0,.811.224l2.754-.688a2.2,2.2,0,0,1,1.88.4l2.9,2.256a2.2,2.2,0,0,1,.205,3.286l-1.3,1.3a3.5,3.5,0,0,1-3.62.884,23.452,23.452,0,0,1-8.821-5.563A23.45,23.45,0,0,1,1.311,6.236a3.5,3.5,0,0,1,.884-3.622l1.3-1.3ZM21.734.195a.671.671,0,0,1,0,.95L16.168,6.711h3.749a.671.671,0,0,1,0,1.342H14.548a.671.671,0,0,1-.671-.671V2.012a.671.671,0,0,1,1.342,0V5.761L20.785.195a.671.671,0,0,1,.95,0Z" transform="translate(-1.124 0.003)" fill="#fff" fill-rule="evenodd"/>
</svg>
