<svg id="account" xmlns="http://www.w3.org/2000/svg" width="24.557" height="24.557" viewBox="0 0 24.557 24.557">
  <path id="Path_58" data-name="Path 58" d="M24.557,12.266a12.278,12.278,0,1,0-20.21,9.347c.025.025.049.025.049.049.221.172.442.344.688.516a3.282,3.282,0,0,1,.344.269,12.258,12.258,0,0,0,13.754,0c.121-.072.219-.169.342-.244.221-.171.467-.342.688-.514.025-.025.049-.025.049-.049a12.486,12.486,0,0,0,4.3-9.372ZM12.278,23.011a10.657,10.657,0,0,1-6.164-1.963,5.008,5.008,0,0,1,.123-.588,6.4,6.4,0,0,1,.638-1.521,5.4,5.4,0,0,1,.982-1.252,6.9,6.9,0,0,1,1.252-.981,6.2,6.2,0,0,1,1.5-.614,6.528,6.528,0,0,1,6.164,1.571A6.148,6.148,0,0,1,18.1,19.65a6.525,6.525,0,0,1,.368,1.4,10.79,10.79,0,0,1-6.188,1.963ZM8.521,11.654a4.025,4.025,0,0,1,0-3.142,4.188,4.188,0,0,1,2.186-2.183,3.83,3.83,0,0,1,1.572-.319,3.75,3.75,0,0,1,1.572.319,4.188,4.188,0,0,1,2.186,2.183,3.828,3.828,0,0,1,.319,1.57,3.739,3.739,0,0,1-.319,1.57,4.184,4.184,0,0,1-2.186,2.184,4.167,4.167,0,0,1-3.168,0,4.359,4.359,0,0,1-1.3-.883,3.877,3.877,0,0,1-.859-1.3ZM19.916,19.8c0-.049-.025-.074-.025-.123a8.012,8.012,0,0,0-1.056-2.158,7.5,7.5,0,0,0-1.67-1.742,7.992,7.992,0,0,0-1.6-.933,4.328,4.328,0,0,0,.712-.588,6.446,6.446,0,0,0,.958-1.2,5.562,5.562,0,0,0,.81-2.968,5.694,5.694,0,0,0-.442-2.257,5.831,5.831,0,0,0-1.252-1.84,5.9,5.9,0,0,0-1.842-1.228,6,6,0,0,0-4.518,0A5.573,5.573,0,0,0,8.153,6.01,5.894,5.894,0,0,0,6.925,7.85a5.694,5.694,0,0,0-.442,2.257A5.339,5.339,0,0,0,6.7,11.652a5.645,5.645,0,0,0,.614,1.423,5.58,5.58,0,0,0,.958,1.2,4.3,4.3,0,0,0,.737.588,7.858,7.858,0,0,0-1.6.958,8.508,8.508,0,0,0-1.67,1.718A7.673,7.673,0,0,0,4.69,19.7a.267.267,0,0,0-.025.123,10.74,10.74,0,1,1,18.369-7.556A10.682,10.682,0,0,1,19.916,19.8Z" fill="#fff"/>
</svg>
