<svg id="research-hinton-plot" xmlns="http://www.w3.org/2000/svg" width="20.713" height="20.713" viewBox="0 0 20.713 20.713">
  <path id="Path_59" data-name="Path 59" d="M2.25,2.25H5.209V5.209H2.25Z" transform="translate(-2.25 -2.25)" fill="#fff"/>
  <path id="Path_60" data-name="Path 60" d="M11.25,2.25h2.959V5.209H11.25Z" transform="translate(-5.332 -2.25)" fill="#fff"/>
  <path id="Path_61" data-name="Path 61" d="M20.25,2.25h2.959V5.209H20.25Z" transform="translate(-8.414 -2.25)" fill="#fff"/>
  <path id="Path_62" data-name="Path 62" d="M29.25,2.25h2.959V5.209H29.25Z" transform="translate(-11.496 -2.25)" fill="#fff"/>
  <path id="Path_63" data-name="Path 63" d="M2.25,11.25H5.209v2.959H2.25Z" transform="translate(-2.25 -5.332)" fill="#fff"/>
  <path id="Path_64" data-name="Path 64" d="M11.25,11.25h2.959v2.959H11.25Z" transform="translate(-5.332 -5.332)" fill="#fff"/>
  <path id="Path_65" data-name="Path 65" d="M20.25,11.25h2.959v2.959H20.25Z" transform="translate(-8.414 -5.332)" fill="#fff"/>
  <path id="Path_66" data-name="Path 66" d="M29.25,11.25h2.959v2.959H29.25Z" transform="translate(-11.496 -5.332)" fill="#fff"/>
  <path id="Path_67" data-name="Path 67" d="M2.25,20.25H5.209v2.959H2.25Z" transform="translate(-2.25 -8.414)" fill="#fff"/>
  <path id="Path_68" data-name="Path 68" d="M11.25,20.25h2.959v2.959H11.25Z" transform="translate(-5.332 -8.414)" fill="#fff"/>
  <path id="Path_69" data-name="Path 69" d="M20.25,20.25h2.959v2.959H20.25Z" transform="translate(-8.414 -8.414)" fill="#fff"/>
  <path id="Path_70" data-name="Path 70" d="M29.25,20.25h2.959v2.959H29.25Z" transform="translate(-11.496 -8.414)" fill="#fff"/>
  <path id="Path_71" data-name="Path 71" d="M2.25,29.25H5.209v2.959H2.25Z" transform="translate(-2.25 -11.496)" fill="#fff"/>
  <path id="Path_72" data-name="Path 72" d="M11.25,29.25h2.959v2.959H11.25Z" transform="translate(-5.332 -11.496)" fill="#fff"/>
  <path id="Path_73" data-name="Path 73" d="M20.25,29.25h2.959v2.959H20.25Z" transform="translate(-8.414 -11.496)" fill="#fff"/>
  <path id="Path_74" data-name="Path 74" d="M29.25,29.25h2.959v2.959H29.25Z" transform="translate(-11.496 -11.496)" fill="#fff"/>
</svg>
