<svg width="34" height="34" viewBox="0 0 34 34" fill="none" xmlns="http://www.w3.org/2000/svg">
<path d="M27.8035 10.6573C27.7516 10.5937 27.6887 10.5397 27.6178 10.4978C27.798 10.1548 27.9233 9.78622 27.9892 9.4053C28.0147 9.25267 27.9947 9.09602 27.9316 8.95443C27.8685 8.81284 27.7651 8.69242 27.6339 8.60786C27.502 8.52211 27.3476 8.47641 27.1897 8.47641C27.0318 8.47641 26.8774 8.52211 26.7455 8.60786C26.1854 8.96725 25.5601 9.21637 24.9042 9.3415C24.1506 8.64296 23.1967 8.19142 22.1732 8.04867C21.1497 7.90593 20.1066 8.07895 19.1865 8.54406C18.226 9.04051 17.4593 9.83732 17.0063 10.8098C16.5534 11.7823 16.4396 12.8757 16.6829 13.9188C16.7257 14.1303 16.8519 14.3163 17.0337 14.436C17.2154 14.5556 17.4378 14.5991 17.652 14.5568C17.8662 14.5145 18.0546 14.3899 18.1758 14.2104C18.2969 14.031 18.3409 13.8113 18.2981 13.5998C18.1308 12.9073 18.1983 12.1797 18.49 11.5286C18.7818 10.8775 19.2818 10.3389 19.9133 9.9954C20.5939 9.65424 21.3705 9.54741 22.1196 9.69189C22.8688 9.83637 23.5476 10.2239 24.0482 10.7928C24.1397 10.8837 24.2521 10.9515 24.3759 10.9903C24.4996 11.0292 24.6309 11.0381 24.7589 11.0161H24.9608C24.8691 11.1098 24.8022 11.2242 24.7656 11.3493C24.7291 11.4744 24.7242 11.6065 24.7513 11.7339C24.7784 11.8614 24.8366 11.9803 24.921 12.0804C25.0054 12.1804 25.1133 12.2586 25.2353 12.308C25.1317 12.3919 25.0509 12.5 25.0001 12.6225C24.9494 12.7451 24.9303 12.8781 24.9446 13.0097C25.0786 14.7087 24.7886 16.4142 24.1002 17.9768C23.4117 19.5394 22.3457 20.9115 20.9955 21.9729C19.6106 23.1463 17.9349 23.9352 16.1398 24.2588C14.3448 24.5825 12.4948 24.4294 10.7794 23.815C12.1434 23.5893 13.4147 22.9866 14.4459 22.0766C14.5499 21.9593 14.6169 21.8144 14.6384 21.6599C14.6599 21.5054 14.6351 21.3481 14.567 21.2074C14.4998 21.068 14.3931 20.9508 14.2598 20.8701C14.1264 20.7894 13.9723 20.7487 13.8159 20.7529C13.3554 20.7493 12.901 20.6486 12.4831 20.4574C12.0653 20.2662 11.6936 19.989 11.3932 19.6444C11.6747 19.5909 11.9468 19.4968 12.2007 19.3653C12.3526 19.2916 12.4772 19.1727 12.5569 19.0253C12.6366 18.8779 12.6674 18.7095 12.6449 18.5439C12.6232 18.3841 12.5529 18.2345 12.4434 18.1149C12.3338 17.9953 12.1901 17.9114 12.0312 17.8741C11.5012 17.7489 11.0074 17.5056 10.5874 17.1628C10.1675 16.82 9.83256 16.3868 9.60837 15.8964C9.80219 15.8964 9.99601 15.9363 10.206 15.9443C10.3762 15.9568 10.5461 15.9156 10.6912 15.8268C10.8363 15.738 10.9492 15.606 11.0136 15.4499C11.0713 15.2938 11.0782 15.1238 11.0333 14.9637C10.9884 14.8036 10.894 14.6613 10.7632 14.5568C9.41454 13.3446 9.08343 12.0448 9.27725 11.1278C10.8005 12.7199 12.7679 13.83 14.9304 14.3175C15.0365 14.3374 15.1455 14.3365 15.2512 14.3148C15.3568 14.2931 15.4572 14.2511 15.5464 14.1911C15.6357 14.1311 15.7121 14.0544 15.7713 13.9652C15.8305 13.8761 15.8713 13.7763 15.8915 13.6716C15.9116 13.5669 15.9107 13.4593 15.8887 13.3549C15.8667 13.2505 15.8242 13.1515 15.7634 13.0633C15.7027 12.9752 15.625 12.8998 15.5347 12.8413C15.4444 12.7829 15.3434 12.7425 15.2373 12.7226C13.0482 12.2162 11.1029 10.9797 9.72951 9.22189C9.65688 9.13099 9.56508 9.05679 9.46048 9.00446C9.35588 8.95213 9.241 8.92292 9.12381 8.91886C9.00571 8.91454 8.88808 8.93587 8.77924 8.98134C8.6704 9.02681 8.57299 9.09531 8.49389 9.18201C7.97084 9.86268 7.66727 10.683 7.62262 11.5363C7.57797 12.3896 7.79432 13.2364 8.24353 13.9666H8.17085C8.05147 14.0307 7.9504 14.1235 7.87699 14.2364C7.80358 14.3493 7.76021 14.4787 7.7509 14.6126C7.73773 15.2837 7.87163 15.9497 8.14345 16.5649C8.41526 17.1802 8.81856 17.7301 9.32571 18.1771C9.23153 18.2851 9.16838 18.416 9.14281 18.5563C9.11725 18.6965 9.13021 18.8409 9.18034 18.9746C9.64804 20.2059 10.5637 21.2209 11.7485 21.8214C10.486 22.2905 9.14824 22.5309 7.79935 22.5311C7.62311 22.5329 7.45229 22.5916 7.31296 22.6982C7.17363 22.8048 7.07344 22.9534 7.02769 23.1215C6.98193 23.2896 6.99312 23.4678 7.05954 23.629C7.12596 23.7903 7.24397 23.9256 7.39556 24.0144C9.46332 25.2692 11.8335 25.9548 14.2601 26C17.1006 25.9679 19.8415 24.9615 22.013 23.1531C23.5125 21.9742 24.7098 20.4633 25.5081 18.7427C26.3064 17.0221 26.6833 15.1401 26.6083 13.249C27.2201 12.7972 27.6768 12.1709 27.9166 11.4547C27.9711 11.3238 27.9893 11.181 27.9694 11.0409C27.9496 10.9007 27.8923 10.7683 27.8035 10.6573Z" fill="white"/>
<rect x="0.75" y="0.75" width="32.5" height="32.5" rx="8.25" stroke="white" stroke-width="1.5"/>
</svg>
