<svg width="238" height="271" viewBox="0 0 238 271" fill="none" xmlns="http://www.w3.org/2000/svg">
<g id="Group 140539">
<path id="Vector" d="M16.1645 182.761C19.9737 184.488 23.8937 185.96 27.8984 187.166L26.1824 192.578C21.9648 191.306 17.8419 189.739 13.8445 187.888L16.1645 182.761ZM40.065 190.157C44.1691 190.884 48.3117 191.373 52.4721 191.622L52.1379 197.191C47.7521 196.957 43.3854 196.446 39.0638 195.661L40.065 190.157ZM65.0572 191.781C69.1913 191.607 73.3882 191.213 77.5723 190.62L78.3796 196.208C73.996 196.814 69.5995 197.221 65.2659 197.408L65.0572 191.781ZM90.0306 188.337C94.0375 187.385 98.1553 186.241 102.157 184.966L103.873 190.311C99.72 191.626 95.4507 192.811 91.2443 193.776L90.0306 188.337ZM114.067 180.638C117.939 179.032 121.799 177.227 125.59 175.318L128.119 180.364C124.176 182.313 120.165 184.159 116.217 185.785L114.067 180.638ZM136.662 169.226L141.979 165.893L147.105 162.45L150.358 167.017C148.592 168.302 146.805 169.512 144.97 170.693C143.136 171.875 141.301 173.057 139.557 173.971L136.662 169.226ZM157.415 154.573C160.679 151.912 163.924 149.176 167.1 146.336L171.015 150.645C167.811 153.533 164.463 156.338 161.095 159.067L157.415 154.573ZM176.328 137.45C179.34 134.451 182.304 131.425 185.248 128.322L189.412 132.199C186.44 135.349 183.421 138.472 180.333 141.491L176.328 137.45ZM193.79 118.849C196.617 115.615 199.321 112.374 202.052 109.085L206.41 112.626C203.652 115.963 200.844 119.272 198.017 122.506L193.79 118.849ZM210.081 99.0593L217.919 88.9225L222.388 92.2711L214.495 102.504L210.081 99.0593ZM225.592 78.6268L233.196 68.2277L237.693 71.5282L230.041 81.8997L225.592 78.6268Z" fill="#6A0822"/>
<path id="Vector_2" d="M23.9611 213.059L28.9992 210.654L17.2331 185.678L42.9919 175.772L40.9727 170.509L9.59222 182.611L23.9611 213.059Z" fill="#6A0822"/>
</g>
</svg>
