<svg width="231" height="142" viewBox="0 0 231 142" fill="none" xmlns="http://www.w3.org/2000/svg">
<g id="Group 140538">
<path id="Vector" d="M207.704 136.233C207.296 132.071 206.61 127.94 205.653 123.869L211.197 122.649C212.205 126.937 212.909 131.291 213.305 135.679L207.704 136.233ZM202.16 111.837C200.737 107.919 199.089 104.087 197.225 100.359L202.215 97.8639C204.205 101.779 205.945 105.817 207.427 109.951L202.16 111.837ZM191.07 89.3805C188.852 85.8873 186.413 82.4497 183.807 79.1228L188.242 75.6297C190.959 79.1228 193.51 82.7269 195.839 86.3864L191.07 89.3805ZM175.601 69.475C172.773 66.4809 169.723 63.4868 166.618 60.659L170.389 56.5005C173.604 59.4392 176.765 62.5442 179.704 65.7047L175.601 69.475ZM156.915 52.5083C153.588 49.9577 150.095 47.518 146.546 45.1892L149.651 40.4763C153.311 42.916 156.915 45.4665 160.297 48.0725L156.915 52.5083ZM135.734 38.6465L130.189 35.7079L124.645 32.9909L126.974 27.8898C128.97 28.777 130.91 29.7195 132.851 30.7176C134.792 31.7156 136.732 32.7137 138.396 33.7672L135.734 38.6465ZM112.668 28.0007C108.731 26.5037 104.739 25.062 100.692 23.7313L102.466 18.1866C106.569 19.5173 110.672 21.0144 114.72 22.5669L112.668 28.0007ZM88.3825 20.1827C84.2794 19.0738 80.1763 18.0202 76.0178 17.0222L77.2931 11.4775C81.5071 12.4755 85.721 13.529 89.8795 14.6934L88.3825 20.1827ZM63.5422 14.3607C59.3282 13.529 55.1698 12.8082 50.9558 12.0874L51.8429 6.5427C56.1123 7.26351 60.3817 8.03984 64.5957 8.87155L63.5422 14.3607ZM38.2584 10.1468L25.5611 8.42796L26.2264 2.88327L39.0346 4.60211L38.2584 10.1468ZM12.8082 6.93087L0 5.5447L0.60992 0L13.4182 1.44159L12.8082 6.93087Z" fill="#6A0822"/>
<path id="Vector_2" d="M230.045 114.332L225.443 111.172L209.696 133.849L188.238 116.495L184.689 120.875L210.86 142L230.045 114.332Z" fill="#6A0822"/>
</g>
</svg>
